<?xml version="1.0" encoding="UTF-8" standalone="no"?>
<svg width="631" height="99" viewBox="0 0 631 99" fill="none" xmlns="http://www.w3.org/2000/svg">
<path d="M131.236 23.8041C110.831 23.8041 94.2831 39.736 94.2831 59.4021C94.2831 79.0681 110.831 95 131.236 95C139.323 95 146.539 90.8925 150.769 84.6691V93.0085H168.188V59.4021C168.188 39.736 151.64 23.8041 131.236 23.8041ZM131.609 78.0723C121.282 78.0723 112.946 69.7329 112.946 59.4021C112.946 49.0712 121.282 40.7318 131.609 40.7318C141.936 40.7318 150.272 49.0712 150.272 59.4021C150.272 69.7329 141.936 78.0723 131.609 78.0723Z" fill="#1665FF"/>
<path d="M208.398 53.4276C201.181 52.5563 192.97 49.4446 192.97 45.4616C192.97 40.9807 196.827 39.4871 200.933 39.4871C205.038 39.4871 208.895 40.9807 208.895 46.7063H227.558C227.558 32.2679 215.365 23.8041 200.933 23.8041C186.5 23.8041 174.307 32.2679 174.307 45.9595C174.307 56.5393 186.873 64.5052 199.937 66.1233C205.536 66.8701 209.642 69.7329 209.642 72.8446C209.642 77.201 205.038 79.317 200.933 79.317C196.827 79.317 192.223 77.8234 192.223 72.0978H173.56C173.56 86.5362 186.5 95 200.933 95C215.365 95 228.305 86.5362 228.305 72.0978C228.305 60.7712 218.227 54.5478 208.398 53.4276Z" fill="#1665FF"/>
<path d="M234.289 93.0085H252.951V59.2776C252.951 49.0712 258.799 40.7318 269.126 40.7318C279.453 40.7318 285.3 49.0712 285.3 59.4021V93.0085H303.963V59.4021C303.963 39.736 289.779 23.8041 269.126 23.8041C262.905 23.8041 257.306 26.0445 252.951 29.7786V3.39128H234.289V93.0085Z" fill="#1665FF"/>
<path d="M312.084 93.0085H330.747V3.39128H312.084V93.0085Z" fill="#1665FF"/>
<path d="M372.676 23.8041C352.272 23.8041 335.724 39.736 335.724 59.4021C335.724 79.0681 352.272 95 372.676 95C380.764 95 387.98 90.8925 392.21 84.6691V93.0085H409.629V59.4021C409.629 39.736 393.081 23.8041 372.676 23.8041ZM373.05 78.0723C362.723 78.0723 354.387 69.7329 354.387 59.4021C354.387 49.0712 362.723 40.7318 373.05 40.7318C383.377 40.7318 391.713 49.0712 391.713 59.4021C391.713 69.7329 383.377 78.0723 373.05 78.0723Z" fill="#1665FF"/>
<path d="M454.691 23.8041C447.599 23.8041 441.129 26.6669 436.401 31.3967V3.39128H417.739V93.0085H435.157V84.6691C439.387 90.8925 446.604 95 454.691 95C475.096 95 491.643 79.0681 491.643 59.4021C491.643 39.736 475.096 23.8041 454.691 23.8041ZM454.318 78.0723C443.991 78.0723 435.655 69.7329 435.655 59.4021C435.655 49.0712 443.991 40.7318 454.318 40.7318C464.644 40.7318 472.981 49.0712 472.981 59.4021C472.981 69.7329 464.644 78.0723 454.318 78.0723Z" fill="#1665FF"/>
<path d="M528.728 53.4276C521.512 52.5563 513.3 49.4446 513.3 45.4616C513.3 40.9807 517.157 39.4871 521.263 39.4871C525.369 39.4871 529.226 40.9807 529.226 46.7063H547.889C547.889 32.2679 535.695 23.8041 521.263 23.8041C506.83 23.8041 494.637 32.2679 494.637 45.9595C494.637 56.5393 507.204 64.5052 520.268 66.1233C525.866 66.8701 529.972 69.7329 529.972 72.8446C529.972 77.201 525.369 79.317 521.263 79.317C517.157 79.317 512.554 77.8234 512.554 72.0978H493.891C493.891 86.5362 506.83 95 521.263 95C535.695 95 548.635 86.5362 548.635 72.0978C548.635 60.7712 538.557 54.5478 528.728 53.4276Z" fill="#1665FF"/>
<path d="M560.261 88.5582C560.261 85.6532 557.851 83.2426 554.947 83.2426C551.981 83.2426 549.634 85.6532 549.634 88.5582C549.634 91.5251 551.981 93.8738 554.947 93.8738C557.851 93.8738 560.261 91.5251 560.261 88.5582Z" fill="#1665FF"/>
<path d="M580.768 58.6425C570.635 58.6425 562.418 66.5541 562.418 76.32C562.418 86.0858 570.635 93.9975 580.768 93.9975C584.784 93.9975 588.367 91.9577 590.468 88.8673V93.0085H599.118V76.32C599.118 66.5541 590.901 58.6425 580.768 58.6425ZM580.953 85.5914C575.825 85.5914 571.685 81.4501 571.685 76.32C571.685 71.1898 575.825 67.0485 580.953 67.0485C586.081 67.0485 590.221 71.1898 590.221 76.32C590.221 81.4501 586.081 85.5914 580.953 85.5914Z" fill="#1665FF"/>
<path d="M608.335 45.6625C605.369 45.6625 603.022 48.073 603.022 50.9781C603.022 53.9449 605.369 56.2937 608.335 56.2937C611.239 56.2937 613.649 53.9449 613.649 50.9781C613.649 48.073 611.239 45.6625 608.335 45.6625ZM603.701 93.0085H612.969V59.6314H603.701V93.0085Z" fill="#1665FF"/>
<path d="M9.68594 0H19.1405V5.78024H41.1384C58.5984 5.78024 72.7575 12.4491 81.2654 23.2521H43.1619C42.7464 23.2345 42.3286 23.2257 41.9087 23.2257H34.1182C33.2345 19.8395 30.1562 17.3405 26.4945 17.3405C22.1431 17.3405 18.6156 20.8694 18.6156 25.2225C18.6156 28.8679 21.0894 31.9353 24.4492 32.8363V45.19H19.1408V55.6993H24.4492L3.90862 55.6994L9.68639 55.6993V45.19H3.90862V5.78024H9.68594V0Z" fill="#1665FF"/>
<path d="M69.4763 52.2297H89.9707C89.8998 53.4782 89.7819 54.7081 89.6178 55.918H68.7641C69.0919 54.7193 69.3316 53.4877 69.4763 52.2297Z" fill="#1665FF"/>
<path d="M67.19 60.133H88.8418C88.5474 61.3885 88.2003 62.6184 87.8017 63.8209H65.0263C65.8477 62.6535 66.5725 61.4208 67.19 60.133Z" fill="#1665FF"/>
<path d="M61.3403 68.0358H86.1419C85.5869 69.2435 84.9749 70.4174 84.3073 71.5553H56.6301C58.3331 70.5434 59.9121 69.3618 61.3403 68.0358Z" fill="#1665FF"/>
<path d="M41.1384 93.0073C59.4758 93.0073 73.5336 86.2616 81.7748 75.3487H45.4523C44.2916 75.4894 43.1088 75.5619 41.9087 75.5619H24.4492V67.2596L0 67.2597V74.193H3.90862V93.0073H41.1384Z" fill="#1665FF"/>
<path d="M62.2944 31.682C60.7303 30.0803 58.9577 28.6623 57.0181 27.4671H84.1714C84.984 28.8228 85.7179 30.2291 86.3697 31.682H62.2944Z" fill="#1665FF"/>
<path d="M65.6515 35.897H87.9863C88.3734 37.1005 88.708 38.3304 88.9885 39.5849H67.6132C67.0608 38.3022 66.4035 37.0697 65.6515 35.897Z" fill="#1665FF"/>
<path d="M68.9992 43.7998H89.714C89.8828 45.1804 89.989 46.5861 90.0306 48.0148H69.6003C69.5206 46.5765 69.3169 45.1684 68.9992 43.7998Z" fill="#1665FF"/>
<path d="M26.5537 30.355C29.443 30.355 31.7853 28.0118 31.7853 25.1214C31.7853 22.2309 29.443 19.8877 26.5537 19.8877C23.6644 19.8877 21.3222 22.2309 21.3222 25.1214C21.3222 28.0118 23.6644 30.355 26.5537 30.355Z" fill="#1665FF"/>
<path d="M624.835 94.1833C627.92 94.1833 630.44 91.6633 630.44 88.5782C630.44 85.4931 627.92 82.9731 624.835 82.9731C621.765 82.9731 619.245 85.4931 619.245 88.5782C619.245 91.6633 621.765 94.1833 624.835 94.1833ZM624.835 92.9004C622.468 92.9004 620.528 90.9607 620.528 88.5782C620.528 86.1956 622.468 84.256 624.835 84.256C627.218 84.256 629.157 86.1956 629.157 88.5782C629.157 90.9607 627.218 92.9004 624.835 92.9004ZM622.941 91.4189H624.224V89.0822H624.423L626.317 91.4189H627.844L625.828 88.9142C626.576 88.6545 626.943 88.1811 626.943 87.4633C626.943 86.5011 626.286 85.7527 625.187 85.7527H622.941V91.4189ZM624.224 87.9978V86.9287H625.034C625.4 86.9287 625.675 87.112 625.675 87.4633C625.675 87.784 625.4 87.9978 625.034 87.9978H624.224Z" fill="#1665FF"/>
</svg>
